<mxfile host="Electron" modified="2023-11-22T18:06:59.210Z" agent="Mozilla/5.0 (Windows NT 10.0; Win64; x64) AppleWebKit/537.36 (KHTML, like Gecko) draw.io/21.6.8 Chrome/114.0.5735.289 Electron/25.5.0 Safari/537.36" etag="Ob90xJ7_xhyXUR4lOw31" version="21.6.8" type="device">
  <diagram id="C5RBs43oDa-KdzZeNtuy" name="Page-1">
    <mxGraphModel dx="1075" dy="2862" grid="1" gridSize="10" guides="1" tooltips="1" connect="1" arrows="1" fold="1" page="1" pageScale="1" pageWidth="827" pageHeight="1169" math="0" shadow="0">
      <root>
        <mxCell id="WIyWlLk6GJQsqaUBKTNV-0" />
        <mxCell id="WIyWlLk6GJQsqaUBKTNV-1" parent="WIyWlLk6GJQsqaUBKTNV-0" />
        <mxCell id="PtvGfc8u3fFPzmpzfyYF-7" value="MedicinalProductDefinition&amp;nbsp;&lt;br&gt;&lt;i style=&quot;border-color: var(--border-color);&quot;&gt;Stelbat Tablets, 20mg&lt;/i&gt;" style="rounded=1;whiteSpace=wrap;html=1;fontSize=12;glass=0;strokeWidth=1;shadow=0;fillColor=#ffe699;" parent="WIyWlLk6GJQsqaUBKTNV-1" vertex="1">
          <mxGeometry x="30" y="-2224" width="156" height="40" as="geometry" />
        </mxCell>
        <mxCell id="bwwu2G-xtIND38kB5rFb-2" value="Ingredient &lt;br&gt;(active)" style="rounded=1;whiteSpace=wrap;html=1;fontSize=12;glass=0;strokeWidth=1;shadow=0;fillColor=#f8cecc;strokeColor=#b85450;" parent="WIyWlLk6GJQsqaUBKTNV-1" vertex="1">
          <mxGeometry x="242" y="-2260" width="120" height="40" as="geometry" />
        </mxCell>
        <mxCell id="bwwu2G-xtIND38kB5rFb-3" value="SubstanceDefinition&lt;br&gt;&lt;i style=&quot;border-color: var(--border-color);&quot;&gt;Stelbatolol&lt;/i&gt;" style="rounded=1;whiteSpace=wrap;html=1;fontSize=12;glass=0;strokeWidth=1;shadow=0;fillColor=#c1f0da;strokeColor=#9ebda2;" parent="WIyWlLk6GJQsqaUBKTNV-1" vertex="1">
          <mxGeometry x="432" y="-2310" width="170" height="40" as="geometry" />
        </mxCell>
        <mxCell id="bwwu2G-xtIND38kB5rFb-4" value="Ingredient&amp;nbsp;&lt;br&gt;(excipient)&amp;nbsp;&lt;br style=&quot;border-color: var(--border-color);&quot;&gt;&lt;i style=&quot;border-color: var(--border-color);&quot;&gt;description including suitability&lt;/i&gt;" style="rounded=1;whiteSpace=wrap;html=1;fontSize=12;glass=0;strokeWidth=1;shadow=0;fillColor=#f8cecc;strokeColor=#b85450;" parent="WIyWlLk6GJQsqaUBKTNV-1" vertex="1">
          <mxGeometry x="242" y="-2210" width="120" height="70" as="geometry" />
        </mxCell>
        <mxCell id="bwwu2G-xtIND38kB5rFb-5" value="SubstanceDefinition&lt;br&gt;&lt;i&gt;Deactivated goat albumin, source: species, part, country&lt;/i&gt;" style="rounded=1;whiteSpace=wrap;html=1;fontSize=12;glass=0;strokeWidth=1;shadow=0;fillColor=#c1f0da;strokeColor=#9ebda2;" parent="WIyWlLk6GJQsqaUBKTNV-1" vertex="1">
          <mxGeometry x="432" y="-2220" width="170" height="60" as="geometry" />
        </mxCell>
        <mxCell id="bwwu2G-xtIND38kB5rFb-7" value="for" style="endArrow=classic;html=1;rounded=0;exitX=0;exitY=0.5;exitDx=0;exitDy=0;entryX=1;entryY=0.25;entryDx=0;entryDy=0;" parent="WIyWlLk6GJQsqaUBKTNV-1" source="bwwu2G-xtIND38kB5rFb-2" target="PtvGfc8u3fFPzmpzfyYF-7" edge="1">
          <mxGeometry x="-0.0625" y="-10" width="50" height="50" relative="1" as="geometry">
            <mxPoint x="252" y="-2221" as="sourcePoint" />
            <mxPoint x="182" y="-2231" as="targetPoint" />
            <mxPoint as="offset" />
          </mxGeometry>
        </mxCell>
        <mxCell id="bwwu2G-xtIND38kB5rFb-8" value="for" style="endArrow=classic;html=1;rounded=0;exitX=0;exitY=0.5;exitDx=0;exitDy=0;entryX=1;entryY=0.75;entryDx=0;entryDy=0;" parent="WIyWlLk6GJQsqaUBKTNV-1" source="bwwu2G-xtIND38kB5rFb-4" target="PtvGfc8u3fFPzmpzfyYF-7" edge="1">
          <mxGeometry x="-0.0263" y="11" width="50" height="50" relative="1" as="geometry">
            <mxPoint x="252" y="-2271" as="sourcePoint" />
            <mxPoint x="188" y="-2231" as="targetPoint" />
            <mxPoint as="offset" />
          </mxGeometry>
        </mxCell>
        <mxCell id="bwwu2G-xtIND38kB5rFb-9" value="" style="endArrow=classic;html=1;rounded=0;entryX=0;entryY=0.5;entryDx=0;entryDy=0;exitX=1;exitY=0.25;exitDx=0;exitDy=0;" parent="WIyWlLk6GJQsqaUBKTNV-1" source="bwwu2G-xtIND38kB5rFb-2" target="bwwu2G-xtIND38kB5rFb-3" edge="1">
          <mxGeometry x="-0.3333" y="-2" width="50" height="50" relative="1" as="geometry">
            <mxPoint x="362" y="-2290" as="sourcePoint" />
            <mxPoint x="412" y="-2221" as="targetPoint" />
            <mxPoint as="offset" />
          </mxGeometry>
        </mxCell>
        <mxCell id="ijBxJZwbMtAu98BQErDS-2" value="subst." style="edgeLabel;html=1;align=center;verticalAlign=middle;resizable=0;points=[];" vertex="1" connectable="0" parent="bwwu2G-xtIND38kB5rFb-9">
          <mxGeometry x="-0.0899" y="-1" relative="1" as="geometry">
            <mxPoint as="offset" />
          </mxGeometry>
        </mxCell>
        <mxCell id="ijBxJZwbMtAu98BQErDS-0" value="Organization&lt;br&gt;&lt;i&gt;Company A&lt;br&gt;&lt;/i&gt;" style="rounded=1;whiteSpace=wrap;html=1;fontSize=12;glass=0;strokeWidth=1;shadow=0;fillColor=#f5f5f5;strokeColor=#666666;fontColor=#333333;" vertex="1" parent="WIyWlLk6GJQsqaUBKTNV-1">
          <mxGeometry x="432" y="-2270" width="170" height="40" as="geometry" />
        </mxCell>
        <mxCell id="ijBxJZwbMtAu98BQErDS-1" value="manuf." style="endArrow=classic;html=1;rounded=0;entryX=0;entryY=0.5;entryDx=0;entryDy=0;exitX=1;exitY=0.5;exitDx=0;exitDy=0;" edge="1" parent="WIyWlLk6GJQsqaUBKTNV-1" target="ijBxJZwbMtAu98BQErDS-0" source="bwwu2G-xtIND38kB5rFb-2">
          <mxGeometry x="0.0217" y="-1" width="50" height="50" relative="1" as="geometry">
            <mxPoint x="232" y="-1911" as="sourcePoint" />
            <mxPoint x="285" y="-1951" as="targetPoint" />
            <mxPoint as="offset" />
          </mxGeometry>
        </mxCell>
        <mxCell id="ijBxJZwbMtAu98BQErDS-3" value="Organization&lt;br&gt;&lt;i&gt;Company B&lt;br&gt;&lt;/i&gt;" style="rounded=1;whiteSpace=wrap;html=1;fontSize=12;glass=0;strokeWidth=1;shadow=0;fillColor=#f5f5f5;strokeColor=#666666;fontColor=#333333;" vertex="1" parent="WIyWlLk6GJQsqaUBKTNV-1">
          <mxGeometry x="432" y="-2160" width="170" height="40" as="geometry" />
        </mxCell>
        <mxCell id="ijBxJZwbMtAu98BQErDS-4" value="" style="endArrow=classic;html=1;rounded=0;entryX=0;entryY=0.25;entryDx=0;entryDy=0;exitX=1;exitY=0.25;exitDx=0;exitDy=0;" edge="1" parent="WIyWlLk6GJQsqaUBKTNV-1" source="bwwu2G-xtIND38kB5rFb-4" target="bwwu2G-xtIND38kB5rFb-5">
          <mxGeometry x="-0.3333" y="-2" width="50" height="50" relative="1" as="geometry">
            <mxPoint x="362" y="-2190" as="sourcePoint" />
            <mxPoint x="452" y="-2311" as="targetPoint" />
            <mxPoint as="offset" />
          </mxGeometry>
        </mxCell>
        <mxCell id="ijBxJZwbMtAu98BQErDS-5" value="subst." style="edgeLabel;html=1;align=center;verticalAlign=middle;resizable=0;points=[];" vertex="1" connectable="0" parent="ijBxJZwbMtAu98BQErDS-4">
          <mxGeometry x="-0.0899" y="-1" relative="1" as="geometry">
            <mxPoint as="offset" />
          </mxGeometry>
        </mxCell>
        <mxCell id="ijBxJZwbMtAu98BQErDS-6" value="manuf." style="endArrow=classic;html=1;rounded=0;entryX=0;entryY=0.25;entryDx=0;entryDy=0;exitX=1;exitY=0.5;exitDx=0;exitDy=0;entryPerimeter=0;" edge="1" parent="WIyWlLk6GJQsqaUBKTNV-1" source="bwwu2G-xtIND38kB5rFb-4" target="ijBxJZwbMtAu98BQErDS-3">
          <mxGeometry x="0.0217" y="-1" width="50" height="50" relative="1" as="geometry">
            <mxPoint x="372" y="-2261" as="sourcePoint" />
            <mxPoint x="452" y="-2271" as="targetPoint" />
            <mxPoint as="offset" />
          </mxGeometry>
        </mxCell>
      </root>
    </mxGraphModel>
  </diagram>
</mxfile>
